<?xml version="1.0" encoding="UTF-8" standalone="no"?>
<svg
   version="1.0"
   width="1080.000000pt"
   height="774.000000pt"
   viewBox="0 0 1080.000000 774.000000"
   preserveAspectRatio="xMidYMid meet"
   id="svg12"
   sodipodi:docname="cat.svg"
   inkscape:version="1.2.2 (b0a8486541, 2022-12-01)"
   xmlns:inkscape="http://www.inkscape.org/namespaces/inkscape"
   xmlns:sodipodi="http://sodipodi.sourceforge.net/DTD/sodipodi-0.dtd"
   xmlns="http://www.w3.org/2000/svg"
   xmlns:svg="http://www.w3.org/2000/svg">
  <defs
     id="defs16" />
  <sodipodi:namedview
     id="namedview14"
     pagecolor="#505050"
     bordercolor="#eeeeee"
     borderopacity="1"
     inkscape:showpageshadow="0"
     inkscape:pageopacity="0"
     inkscape:pagecheckerboard="0"
     inkscape:deskcolor="#505050"
     inkscape:document-units="pt"
     showgrid="false"
     inkscape:zoom="0.5118664"
     inkscape:cx="554.83227"
     inkscape:cy="532.36547"
     inkscape:window-width="1920"
     inkscape:window-height="1016"
     inkscape:window-x="0"
     inkscape:window-y="27"
     inkscape:window-maximized="1"
     inkscape:current-layer="svg12" />
  <g
     transform="translate(0.000000,387.000000) scale(0.100000,-0.100000)"
     fill="#569896"
     stroke="none"
     id="g10">
    <path
       d="m2070 3181 c36 -10 112 -33 170 -50 208 -63 297 -89 385 -116 113 -33 405 -120 465 -139 25 -7 72 -22 105 -31 33 -10 78 -24 100 -31 35 -12 214 -65 420 -126 114 -33 159 -48 183 -60 22 -11 63 -2 147 32 22 9 150 40 260 64 316 68 781 62 1110 -14 108 -24 263 -68 287 -81 10 -5 23 -9 28 -9 6 0 30 -9 54 -19 23 -11 66 -29 94 -40 143 -57 384 -195 529 -305 l98 -74 185 -11 c102 -6 298 -18 435 -26 138 -8 315 -19 395 -24 214 -15 464 -30 740 -46 245 -13 290 -21 321 -54 49 -52 35 -106 -65 -255 -45 -66 -221 -328 -391 -581 -169 -253 -377 -562 -462 -687 -84 -124 -153 -231 -153 -237 0 -6 -4 -11 -8 -11 -5 0 -12 -98 -15 -217 -6 -238 -26 -381 -78 -583 -49 -190 -92 -305 -185 -505 -72 -154 -234 -401 -372 -569 -55 -66 -304 -304 -378 -362 -85 -65 -258 -184 -268 -184 -3 0 -29 -15 -58 -33 -29 -19 -86 -49 -125 -68 -40 -19 -75 -39 -77 -46 -6 -15 80 -88 200 -168 93 -63 288 -164 424 -219 36 -15 79 -33 95 -41 39 -17 196 -72 260 -91 28 -8 59 -19 70 -24 68 -31 373 -99 582 -130 106 -15 334 -12 438 6 107 18 192 42 200 55 4 5 14 9 23 9 25 0 147 65 217 115 72 51 200 184 249 258 176 267 218 590 116 901 -11 32 -25 65 -32 73 -20 24 -17 191 5 230 54 99 142 153 252 153 35 0 66 -4 70 -9 3 -5 18 -12 34 -16 86 -19 176 -192 225 -435 49 -237 36 -546 -31 -755 -28 -87 -105 -264 -140 -322 -18 -30 -33 -57 -33 -60 0 -2 -33 -48 -74 -101 -84 -110 -208 -234 -311 -310 -38 -29 -78 -58 -88 -66 -10 -8 -73 -41 -140 -74 -128 -64 -229 -101 -362 -135 -78 -20 -110 -21 -1509 -24 -1151 -3 -1431 -1 -1438 9 -4 7 -8 352 -8 766 l0 752 21 0 c36 0 203 48 315 90 149 56 401 186 412 212 2 4 8 8 13 8 24 0 215 155 319 260 107 107 233 262 283 348 11 20 24 39 28 42 4 3 29 46 56 95 199 367 284 779 249 1205 -46 546 -339 1096 -768 1440 -165 133 -359 250 -513 310 -33 12 -73 29 -90 36 -43 18 -150 50 -225 68 -157 36 -231 47 -397 55 -372 19 -685 -44 -1023 -206 -151 -73 -262 -142 -395 -248 -166 -131 -358 -341 -446 -485 -18 -30 -36 -57 -39 -60 -4 -3 -13 -17 -21 -32 -8 -15 -35 -67 -61 -116 -49 -93 -59 -116 -113 -272 -92 -266 -121 -461 -112 -760 7 -234 52 -479 117 -635 4 -11 14 -36 21 -55 18 -49 102 -225 138 -288 135 -235 330 -456 548 -625 34 -26 66 -47 71 -47 6 0 12 -3 14 -7 4 -10 78 -60 143 -98 88 -52 267 -131 383 -171 l114 -39 -4 -769 c-3 -693 -5 -769 -19 -780 -11 -8 -94 -10 -275 -8 l-259 3 0 591 0 592 -102 52 c-341 174 -630 409 -867 704 -203 252 -327 474 -449 805 -33 89 -80 278 -102 410 -47 279 -52 543 -16 825 19 148 79 392 127 515 15 39 27 86 28 105 0 30 -21 122 -70 305 -7 28 -45 183 -83 345 -39 162 -75 311 -81 330 -13 48 -152 617 -185 760 -15 63 -31 126 -36 139 -5 12 -12 49 -16 82 -7 68 9 102 60 124 42 19 60 18 137 -4z m3772 -2235 c162 -54 278 -141 361 -271 90 -142 123 -259 114 -414 -13 -248 -154 -465 -376 -576 -146 -74 -347 -90 -498 -42 -88 29 -155 62 -212 104 -42 30 -151 142 -151 154 0 4 -6 14 -12 21 -12 12 -39 65 -67 128 -43 98 -55 296 -25 412 64 250 269 448 519 502 102 23 248 15 347 -18z m-1832 -331 c202 -46 364 -211 395 -403 42 -257 -100 -493 -345 -575 -73 -25 -215 -26 -292 -3 -241 71 -396 313 -358 563 7 42 15 83 19 92 43 89 64 122 113 175 64 71 149 122 248 147 82 22 138 23 220 4z m974 -3341 c14 -5 16 -49 16 -390 l0 -384 -245 0 -245 0 0 371 c0 236 4 377 10 390 10 18 23 19 230 19 120 0 225 -3 234 -6z"
       id="path8" />
  </g>
  <g
     transform="matrix(0.1,0,0,-0.1,0,774)"
     fill="#333333"
     stroke="none"
     id="g6">
    <path
       d="M2631 6256 c-9 -11 1 -60 45 -217 31 -112 63 -231 70 -264 23 -94 28 -97 71 -46 78 89 230 237 331 321 23 19 42 37 42 41 0 8 -510 179 -533 179 -8 0 -20 -6 -26 -14z"
       id="path2" />
    <path
       d="M7079 5429 c-7 -4 -1 -22 17 -50 44 -67 47 -74 122 -224 39 -77 75 -157 82 -177 14 -47 32 -48 59 -5 11 17 32 45 46 61 14 16 25 33 25 37 0 4 6 14 13 21 15 16 154 210 180 252 14 22 16 34 9 52 -10 21 -18 22 -174 28 -297 11 -369 12 -379 5z"
       id="path4" />
  </g>
</svg>
