<svg xmlns="http://www.w3.org/2000/svg" width="1440" height="1032" version="1.0" viewBox="0 0 1080 774"><g fill="#569896" transform="matrix(.06476 0 0 -.06476 178.27 361.654)"><circle cx="5533.423" cy="423.949" r="5701.183" style="fill:#14213d;stroke-width:10.2482" transform="scale(1 -1)"/><path d="M2239.858 3053.442c-19.375.625-34.385-3.874-55.385-13.374-51-22-67-56-60-124 4-33 11.01-70.001 16.01-82.001 5-13 20.992-76 35.992-139 33-142.999 172.01-711.99 185.01-759.99 6-19 41.991-168 80.991-330 38-162 75.999-317 82.999-345 49-182.999 70.005-275.01 70.005-305.01-1-19-12.994-66-27.994-105-48-122.999-108.002-366.995-127.002-514.994-36-282-31.003-546 15.997-825 22-132 68.996-320.996 101.996-409.995 122-331 246.005-553.006 449.005-805.005 236.998-295 525.996-530.005 866.996-704.004l101.997-52.002v-1182.993l259-3.003c180.998-2 264.008 0 275.008 7.998 14 11 16 87.001 19 780l4 768.999-114.01 39.009c-116 40-294.999 118.991-382.998 170.99-65 38-138.998 87.999-142.998 97.999-2 4-8.004 7.002-14.004 7.002-5 0-36.987 21.007-70.987 47.007-217.999 169-413.013 390.005-548.012 625.005-36 63-119.989 238.988-137.989 287.988-7 19-17.005 44.005-21.005 55.005-65 156-109.998 400.995-116.998 634.995-9 299 20.003 494.005 112.002 760.005 54 156 64 179.007 112.998 272.007 26 49 52.997 100.986 60.997 115.986s17.005 29.007 21.005 32.007c3 3 20.995 30 38.995 60 88 144 280.001 353.995 446.001 484.995 133 106 243.995 174.998 394.995 247.998 338 162 651.003 225 1023.003 206 166-8 240.002-18.99 397.002-54.99 75-18 182-49.998 225-67.997 17-7 57-24.006 90-36.006 154-60 348.003-177.005 513.002-310.005 429-344 722.003-894.001 768.003-1440 35-426-50.009-837.996-249.008-1204.995-27-49-52-91.995-56-94.995s-16.995-22.012-27.995-42.012c-49.999-86-176.008-240.989-283.007-347.988-104-105-294.999-260.01-318.999-260.01-5 0-10.994-3.998-12.994-7.998-11-26-263.002-155.993-412-211.992-112-42-279.002-90-315-90h-21.007v-752.007c0-414 3.998-758.996 7.998-765.996 7-10 287.01-12.01 1438.008-9.01 1398.997 3 1430.994 4.01 1508.994 24.01 133 34 234.007 71 362.007 135 67 33 129.995 66.004 139.995 74.004s50.007 36.99 88.007 65.99c103 76 227.001 200.006 311.001 310.006 41 53 73.99 99 73.99 101 0 3 15.003 30 33.003 60 35 58 111.996 235.003 139.996 322.003 67 209 80.01 517.995 31.01 754.995-49 243-139 416-225 435-16 4-31 10.996-34 15.996-4 5-35.003 9.009-70.003 9.009-110 0-197.999-54.003-251.999-153.003-21.998-39-25.008-205.995-5.008-229.995 7-8 21.006-41.008 32.006-73.008 102-311 59.999-633.997-116-900.996-49-74-176.996-207.003-248.996-258.003-69.999-50-192.002-115.005-217.002-115.005-9 0-18.998-3.994-22.998-8.994-8-13-93.01-37.005-200.009-55.005-104-18-331.989-20.991-437.989-5.991-208.999 31-514.012 98.99-582.01 129.99-11 5-41.992 16.009-69.992 24.009-64 19-221.009 73.996-260.009 90.996-16 8-58.995 26-94.995 41-136 55-331 155.995-423.999 218.995-120 80-205.996 153.003-199.996 168.003 2 7 36.993 26.996 76.993 45.996 39 19 95.995 49.013 124.995 68.013 29 18 55.008 32.988 58.008 32.988 10 0 182.993 118.999 267.993 183.999 74 58 323.003 296.007 378.003 362.007 138 168 299.997 415.004 371.997 569.004 93 200 136.01 314.99 185.01 504.99 52 202 72.002 345.008 78.002 583.008 3 119 10 217.002 15 217.002 4 0 7.998 5 7.998 11s68.99 112.998 152.99 236.998c85 125 293.011 433.997 462.01 686.997 170 253 345.997 515 390.997 581 100 149 113.994 203 64.995 255-31 33-75.992 40.995-320.992 53.995-275.999 16-526.01 31.01-740.009 46.01-80 5-256.996 15.995-394.995 23.995-137 8-333 20-435 26l-184.996 11.002-97.998 74.004c-144.999 110-386.014 247.995-529.013 304.995-28 11-70.999 29.005-93.999 40.005-24 10-47.994 18.999-53.994 18.999-5 0-17.993 3.994-27.993 8.994-24 13-179.008 57.006-287.007 81.006-329 76-794 81.989-1110 13.989-110-24-237.995-55-259.995-64-84-33.999-125.012-42.991-147.012-31.991-24 12-68.989 27-182.989 60-205.999 61-385 113.991-420 125.99-22 7-67.004 21.012-100.004 31.012-33 9-80 23.996-105 30.996-60 19-352 105.999-465 138.999-88 27-177.006 53-385.005 116-58 17-133.995 39.996-169.995 49.996-38.5 11-62.247 16.748-81.622 17.373zm668.628-798.37c23 0 532.999-171.003 532.999-179.003 0-4-19.012-22.001-42.012-41.001-101-84-252.996-231.992-330.995-320.991-43-51-48.002-48.004-71.002 45.996-7 33-38.99 151.994-69.99 263.994-44 157-54 206.002-45 217.002 6 8 18 14.004 26 14.004zm4503.869-836.747c56.375-.75 148.629-3.758 297.128-9.258 156-6 163.994-6.993 173.994-27.993 7-18 5.006-30.002-8.994-52.002-26-42-165-235.997-180-251.997-7-7-13.008-17.006-13.008-21.006s-10.99-21.002-24.99-37.002c-14-16-35.01-43.996-46.01-60.996-27-43-44.99-42.005-58.99 4.995-7 20-43.002 100.012-82.002 177.012-75 150-78.007 156.989-122.007 223.989-18 28-23.992 46.01-16.992 50.01 5 3.5 25.495 4.998 81.87 4.248zM5921.1 831.069c-61.626 3.25-123.625-.497-174.625-11.997-250-54-454.994-252.003-518.993-502.002-30-116-17.996-314.002 25.004-412.002 28-63 54.988-115.998 66.988-127.998 6-7 12.01-16.991 12.01-20.991 0-12 108.998-124 150.998-154 56.999-42 123.992-75.003 211.992-104.003 150.999-48 352.003-32.003 498.003 41.997 221.999 111 363.01 328.006 376.01 576.006 9 155-24.008 271.994-114.008 413.994-83 130-198.997 216.996-360.996 270.996-49.5 16.5-110.758 26.75-172.383 30zM4151.48 483.447c-34.5-.625-68.995-6.373-109.995-17.373-99-25-183.999-75.998-247.999-146.997-48.999-53-70.012-86.005-113.012-175.005-4-9-11.999-49.993-18.999-91.992-38-250 117.008-492.013 358.007-563.013 77-23 219.003-21.997 292.002 3.003 245 82 387 318.01 345 575.01-31 192-193.01 356.993-395.009 402.993-41 9.5-75.495 13.999-109.995 13.374zm850.005-3348.37c-207 0-220.01-.999-230.01-18.998-6-13-9.99-154.001-9.99-390v-371.001h489.991v383.994c0 341-1.997 385-15.997 390-9 3-113.995 6.006-233.995 6.006z" style="fill:#fca311"/></g></svg>