<?xml version="1.0" encoding="UTF-8" standalone="no"?>
<svg
   version="1.0"
   width="1080.000000pt"
   height="774.000000pt"
   viewBox="0 0 1080.000000 774.000000"
   preserveAspectRatio="xMidYMid meet"
   id="svg12"
   sodipodi:docname="cat.svg"
   inkscape:version="1.2.2 (b0a8486541, 2022-12-01)"
   xmlns:inkscape="http://www.inkscape.org/namespaces/inkscape"
   xmlns:sodipodi="http://sodipodi.sourceforge.net/DTD/sodipodi-0.dtd"
   xmlns="http://www.w3.org/2000/svg"
   xmlns:svg="http://www.w3.org/2000/svg">
  <defs
     id="defs16" />
  <sodipodi:namedview
     id="namedview14"
     pagecolor="#505050"
     bordercolor="#eeeeee"
     borderopacity="1"
     inkscape:showpageshadow="0"
     inkscape:pageopacity="0"
     inkscape:pagecheckerboard="0"
     inkscape:deskcolor="#505050"
     inkscape:document-units="pt"
     showgrid="false"
     inkscape:zoom="0.7238884"
     inkscape:cx="796.39347"
     inkscape:cy="474.52066"
     inkscape:window-width="1920"
     inkscape:window-height="1016"
     inkscape:window-x="0"
     inkscape:window-y="27"
     inkscape:window-maximized="1"
     inkscape:current-layer="svg12" />
  <g
     transform="translate(0.000000,387.000000) scale(0.100000,-0.100000)"
     fill="#569896"
     stroke="none"
     id="g10">
    <path
       id="path8"
       d="M 1988.3789 3198.3691 C 1969.0039 3198.9941 1953.993 3194.4951 1932.9932 3184.9951 C 1881.9932 3162.9951 1865.9932 3128.9959 1872.9932 3060.9961 C 1876.9932 3027.9961 1884.0039 2990.9941 1889.0039 2978.9941 C 1894.0039 2965.9943 1909.9951 2902.9951 1924.9951 2839.9951 C 1957.9951 2696.9955 2097.0049 2128.0047 2110.0049 2080.0049 C 2116.0049 2061.0049 2151.9961 1912.0045 2190.9961 1750.0049 C 2228.9961 1588.0051 2266.9941 1433.0049 2273.9941 1405.0049 C 2322.9941 1222.0053 2343.999 1129.9951 2343.999 1099.9951 C 2342.999 1080.9951 2331.0057 1033.9951 2316.0059 994.99512 C 2268.0059 871.99536 2208.0039 627.9997 2189.0039 480 C 2153.0039 198.00056 2158 -66.000558 2205 -345 C 2227 -476.99974 2273.9971 -665.9953 2306.9971 -754.99512 C 2428.9967 -1085.9945 2553.0014 -1308.0006 2756.001 -1560 C 2993.0004 -1854.9994 3281.9988 -2090.0043 3622.998 -2264.0039 L 3724.9951 -2316.0059 L 3724.9951 -2907.9932 L 3724.9951 -3498.999 L 3983.9941 -3502.002 C 4164.9939 -3504.002 4248.0039 -3502.0039 4259.0039 -3494.0039 C 4273.0039 -3483.0039 4275.0029 -3407.0025 4278.0029 -2714.0039 L 4282.002 -1945.0049 L 4167.9932 -1905.9961 C 4051.9934 -1865.9961 3872.9949 -1787.0047 3784.9951 -1735.0049 C 3719.9953 -1697.0049 3645.9971 -1647.0068 3641.9971 -1637.0068 C 3639.9971 -1633.0068 3633.9932 -1630.0049 3627.9932 -1630.0049 C 3622.9932 -1630.0049 3591.0068 -1608.998 3557.0068 -1582.998 C 3339.0074 -1413.9984 3143.9939 -1192.9927 3008.9941 -957.99316 C 2972.9943 -894.9933 2889.0057 -719.00478 2871.0059 -670.00488 C 2864.0059 -651.00492 2854 -625.99998 2850 -615 C 2785.0002 -459.00032 2740.0029 -214.00442 2733.0029 19.995117 C 2724.0029 318.99452 2753.0051 514.00054 2845.0049 780 C 2899.0047 935.99968 2909.0031 959.00706 2958.0029 1052.0068 C 2984.0029 1101.0068 3010.999 1152.9932 3018.999 1167.9932 C 3026.999 1182.993 3036.0049 1197 3040.0049 1200 C 3043.0049 1203 3060.999 1230 3078.999 1260 C 3166.9988 1403.9998 3359.0004 1613.9953 3525 1744.9951 C 3657.9998 1850.9949 3768.9955 1919.9932 3919.9951 1992.9932 C 4257.9945 2154.9928 4570.9988 2217.9941 4942.998 2198.9941 C 5108.9978 2190.9941 5183.0004 2180.0039 5340 2144.0039 C 5414.9998 2126.0039 5522 2094.0057 5565 2076.0059 C 5582 2069.0059 5622 2052 5655 2040 C 5808.9996 1980.0002 6003.0033 1862.9949 6168.0029 1729.9951 C 6597.0021 1385.9959 6890.0059 835.99402 6936.0059 289.99512 C 6971.0057 -136.00404 6885.9967 -548.00074 6686.9971 -915 C 6659.9971 -963.9999 6634.9961 -1006.9951 6630.9961 -1009.9951 C 6626.9961 -1012.9951 6614.0029 -1032.007 6603.0029 -1052.0068 C 6553.0031 -1138.0066 6426.9949 -1292.9953 6319.9951 -1399.9951 C 6215.9953 -1504.9949 6024.9961 -1660.0049 6000.9961 -1660.0049 C 5995.9961 -1660.0049 5990.0029 -1664.0029 5988.0029 -1668.0029 C 5977.0029 -1694.0029 5725.0006 -1823.9953 5576.001 -1879.9951 C 5464.0012 -1921.9951 5297.0008 -1969.9951 5261.001 -1969.9951 L 5239.9951 -1969.9951 L 5239.9951 -2722.002 C 5239.9951 -3136.001 5243.9932 -3480.9982 5247.9932 -3487.998 C 5254.9932 -3497.998 5535.0032 -3500.0068 6686.001 -3497.0068 C 8084.9982 -3494.0068 8116.9953 -3492.998 8194.9951 -3472.998 C 8327.9949 -3438.9982 8429.0022 -3401.998 8557.002 -3337.998 C 8624.0018 -3304.9982 8686.9971 -3271.9941 8696.9971 -3263.9941 C 8706.9971 -3255.9941 8747.0049 -3227.0029 8785.0049 -3198.0029 C 8888.0047 -3122.0031 9012.0059 -2997.9978 9096.0059 -2887.998 C 9137.0057 -2834.9982 9169.9951 -2788.9971 9169.9951 -2786.9971 C 9169.9951 -2783.9971 9184.9982 -2756.9969 9202.998 -2726.9971 C 9237.998 -2668.9971 9314.9932 -2491.9949 9342.9932 -2404.9951 C 9409.993 -2195.9955 9423.0039 -1886.9996 9374.0039 -1650 C 9325.0041 -1407.0004 9235.0037 -1234 9149.0039 -1215 C 9133.0039 -1211 9118.0049 -1204.0039 9115.0049 -1199.0039 C 9111.0049 -1194.0039 9080 -1189.9951 9045 -1189.9951 C 8935.0002 -1189.9951 8847.0029 -1243.9982 8793.0029 -1342.998 C 8771.0031 -1381.998 8767.9932 -1548.9932 8787.9932 -1572.9932 C 8794.9932 -1580.9932 8809 -1614.001 8820 -1646.001 C 8921.9998 -1957.0004 8879.9986 -2279.9975 8703.999 -2546.9971 C 8654.9992 -2620.9969 8527.0047 -2754.0002 8455.0049 -2805 C 8385.0051 -2855 8263.0029 -2920.0049 8238.0029 -2920.0049 C 8229.0029 -2920.0049 8219.0049 -2923.999 8215.0049 -2928.999 C 8207.0049 -2941.999 8121.9949 -2966.0039 8014.9951 -2984.0039 C 7910.9953 -3002.0039 7683.0066 -3004.9951 7577.0068 -2989.9951 C 7368.0072 -2958.9951 7062.9949 -2891.0049 6994.9951 -2860.0049 C 6983.9951 -2855.0049 6953.0049 -2843.9961 6925.0049 -2835.9961 C 6861.0049 -2816.9961 6703.9951 -2762 6664.9951 -2745 C 6648.9951 -2737 6606 -2718.999 6570 -2703.999 C 6434.0002 -2648.9992 6239.0008 -2548.0047 6146.001 -2485.0049 C 6026.0012 -2405.0051 5940.0059 -2332.0018 5946.0059 -2317.002 C 5948.0059 -2310.002 5982.9982 -2290.0057 6022.998 -2271.0059 C 6061.998 -2252.0059 6118.9932 -2221.993 6147.9932 -2202.9932 C 6176.993 -2184.9932 6203.001 -2170.0049 6206.001 -2170.0049 C 6216.001 -2170.0049 6388.9943 -2051.0057 6473.9941 -1986.0059 C 6547.9941 -1928.0059 6796.9971 -1689.999 6851.9971 -1623.999 C 6989.9967 -1455.9994 7151.9943 -1208.9949 7223.9941 -1054.9951 C 7316.9939 -854.99554 7360.0041 -740.0045 7409.0039 -550.00488 C 7461.0039 -348.00528 7481.0068 -204.99659 7487.0068 33.00293 C 7490.0068 152.00269 7497.0068 250.00488 7502.0068 250.00488 C 7506.0068 250.00488 7510.0049 255.00588 7510.0049 261.00586 C 7510.0049 267.00584 7578.9932 374.00317 7662.9932 498.00293 C 7747.993 623.00267 7956.0053 932.0005 8125.0049 1185 C 8295.0045 1437.9994 8471.001 1700.001 8516.001 1766.001 C 8616.0008 1915.0006 8629.9959 1969.001 8580.9961 2021.001 C 8549.9961 2054.0008 8505.0043 2061.9951 8260.0049 2074.9951 C 7984.0055 2090.9951 7733.9947 2106.0059 7519.9951 2121.0059 C 7439.9953 2126.0059 7262.9998 2137 7125 2145 C 6988.0002 2153 6791.9998 2165.001 6690 2171.001 L 6505.0049 2182.002 L 6407.0068 2256.0059 C 6262.0072 2366.0055 6020.9928 2504.001 5877.9932 2561.001 C 5849.9932 2572.001 5806.9941 2590.0059 5783.9941 2601.0059 C 5759.9943 2611.0057 5736 2620.0049 5730 2620.0049 C 5725 2620.0049 5712.0068 2623.999 5702.0068 2628.999 C 5678.007 2641.999 5522.9998 2686.0049 5415 2710.0049 C 5086.0006 2786.0047 4620.9994 2791.9941 4305 2723.9941 C 4195.0002 2699.9943 4067.0049 2668.9951 4045.0049 2659.9951 C 3961.0051 2625.9953 3919.993 2617.0029 3897.9932 2628.0029 C 3873.9932 2640.0029 3829.0047 2655.0031 3715.0049 2688.0029 C 3509.0053 2749.0029 3330.0047 2801.9943 3295.0049 2813.9941 C 3273.0049 2820.9941 3228 2835.0049 3195 2845.0049 C 3162 2854.0049 3115 2869.001 3090 2876.001 C 3030.0002 2895.001 2737.9998 2982 2625 3015 C 2537.0002 3042 2447.9947 3068.001 2239.9951 3131.001 C 2181.9953 3148.001 2106 3170.9961 2070 3180.9961 C 2031.5 3191.9961 2007.7539 3197.7441 1988.3789 3198.3691 z M 2657.0068 2400 C 2680.0068 2400 3190.0049 2228.9961 3190.0049 2220.9961 C 3190.0049 2216.9961 3170.993 2198.9951 3147.9932 2179.9951 C 3046.9934 2095.9953 2894.9969 1948.0037 2816.9971 1859.0039 C 2773.9971 1808.0041 2768.9961 1811.0002 2745.9961 1905 C 2738.9961 1938 2707.0057 2056.9945 2676.0059 2168.9941 C 2632.0059 2325.9939 2622.0059 2374.9961 2631.0059 2385.9961 C 2637.0059 2393.9961 2649.0068 2400 2657.0068 2400 z M 7160.874 1563.252 C 7217.249 1562.502 7309.5031 1559.4941 7458.0029 1553.9941 C 7614.0028 1547.9941 7621.9971 1547.001 7631.9971 1526.001 C 7638.9971 1508.001 7637.0029 1495.999 7623.0029 1473.999 C 7597.003 1431.9991 7458.0029 1238.0019 7443.0029 1222.002 C 7436.0029 1215.002 7429.9951 1204.9961 7429.9951 1200.9961 C 7429.9951 1196.9961 7419.0049 1179.9941 7405.0049 1163.9941 C 7391.0049 1147.9942 7369.9941 1119.998 7358.9941 1102.998 C 7331.9942 1059.9981 7314.0049 1060.9932 7300.0049 1107.9932 C 7293.0049 1127.9931 7257.0029 1208.005 7218.0029 1285.0049 C 7143.003 1435.0047 7139.996 1441.9942 7095.9961 1508.9941 C 7077.9961 1536.9941 7072.0039 1555.0039 7079.0039 1559.0039 C 7084.0039 1562.5039 7104.4991 1564.002 7160.874 1563.252 z M 5669.6191 975.99609 C 5607.9943 979.24609 5545.9951 975.499 5494.9951 963.99902 C 5244.9957 909.99914 5040.0008 711.99657 4976.001 461.99707 C 4946.001 345.99731 4958.0059 147.99492 5001.0059 49.995117 C 5029.0057 -13.004757 5055.9932 -66.002954 5067.9932 -78.00293 C 5073.9932 -85.002916 5080.0049 -94.994149 5080.0049 -98.994141 C 5080.0049 -110.99412 5189.001 -222.99322 5231.001 -252.99316 C 5288.0008 -294.99308 5354.9934 -327.99713 5442.9932 -356.99707 C 5593.9928 -404.99697 5794.9963 -388.99986 5940.9961 -315 C 6162.9957 -204.00022 6304.0068 13.006354 6317.0068 261.00586 C 6326.0068 416.00554 6292.998 533.00028 6202.998 675 C 6119.9982 804.99974 6004.0016 891.99621 5842.002 945.99609 C 5792.502 962.49607 5731.2441 972.74611 5669.6191 975.99609 z M 3900 628.37402 C 3865.5 627.74902 3831.0047 622.00096 3790.0049 611.00098 C 3691.0051 586.00102 3606.0068 535.00377 3542.0068 464.00391 C 3493.007 411.00401 3471.9941 377.99884 3428.9941 288.99902 C 3424.9941 279.99904 3416.9951 239.00674 3409.9951 197.00684 C 3371.9953 -52.992668 3527.0035 -295.006 3768.0029 -366.00586 C 3845.0029 -389.00582 3987.0051 -388.00287 4060.0049 -363.00293 C 4305.0043 -281.00309 4447.0047 -44.992654 4405.0049 212.00684 C 4374.0049 404.00644 4211.9947 569.0001 4009.9951 615 C 3968.9953 624.49998 3934.5 628.99902 3900 628.37402 z M 4750.0049 -2719.9951 C 4543.0053 -2719.9951 4529.9951 -2720.9943 4519.9951 -2738.9941 C 4513.9951 -2751.9941 4510.0049 -2892.9947 4510.0049 -3128.9941 L 4510.0049 -3499.9951 L 4755 -3499.9951 L 4999.9951 -3499.9951 L 4999.9951 -3116.001 C 4999.9951 -2775.0016 4997.999 -2731.001 4983.999 -2726.001 C 4974.999 -2723.001 4870.0047 -2719.9951 4750.0049 -2719.9951 z " />
  </g>
</svg>
