<?xml version="1.0" encoding="UTF-8" standalone="no"?>
<svg
   version="1.0"
   width="1080.000000pt"
   height="774.000000pt"
   viewBox="0 0 1080.000000 774.000000"
   preserveAspectRatio="xMidYMid meet"
   id="svg12"
   sodipodi:docname="cat.svg"
   inkscape:version="1.3 (0e150ed6c4, 2023-07-21)"
   xmlns:inkscape="http://www.inkscape.org/namespaces/inkscape"
   xmlns:sodipodi="http://sodipodi.sourceforge.net/DTD/sodipodi-0.dtd"
   xmlns="http://www.w3.org/2000/svg"
   xmlns:svg="http://www.w3.org/2000/svg">
  <defs
     id="defs16" />
  <sodipodi:namedview
     id="namedview14"
     pagecolor="#505050"
     bordercolor="#eeeeee"
     borderopacity="1"
     inkscape:showpageshadow="0"
     inkscape:pageopacity="0"
     inkscape:pagecheckerboard="0"
     inkscape:deskcolor="#505050"
     inkscape:document-units="pt"
     showgrid="false"
     inkscape:zoom="0.3619442"
     inkscape:cx="1293.017"
     inkscape:cy="295.62568"
     inkscape:window-width="1920"
     inkscape:window-height="1016"
     inkscape:window-x="0"
     inkscape:window-y="27"
     inkscape:window-maximized="1"
     inkscape:current-layer="svg12" />
  <g
     transform="matrix(0.06476143,0,0,-0.06476143,178.27062,361.65387)"
     fill="#569896"
     stroke="none"
     id="g10">
    <circle
       style="fill:#14213d;stroke-width:10.2482"
       id="path1"
       cx="5533.4233"
       cy="423.94904"
       r="5701.1826"
       transform="scale(1,-1)" />
    <path
       id="path8"
       d="m 2239.8585,3053.4418 c -19.375,0.625 -34.385,-3.874 -55.385,-13.374 -51,-22 -67,-55.9992 -60,-123.999 4,-33 11.01,-70.002 16.01,-82.002 5,-12.9998 20.992,-75.999 35.992,-138.999 33,-142.9996 172.009,-711.9904 185.009,-759.9902 6,-19 41.992,-168.0004 80.992,-330 38,-161.9998 75.998,-317 82.998,-345 49,-182.9996 70.005,-275.0098 70.005,-305.0098 -1,-19 -12.994,-66 -27.994,-104.99998 -48,-122.99976 -108.002,-366.99542 -127.002,-514.99515 -36,-281.999404 -31.003,-546.0005 15.997,-825 22,-131.9997 68.997,-320.9953 101.997,-409.9951 121.999,-330.99937 246.004,-553.00547 449.004,-805.00487 236.999,-294.9994 525.997,-530.0043 866.997,-704.0039 l 101.997,-52.002 v -591.9873 -591.0058 l 258.999,-3.003 c 180.999,-2 264.009,0 275.009,7.9981 14,11 15.999,87.0014 18.999,780 l 4,768.999 -114.009,39.0088 c -116,40 -294.999,118.9914 -382.998,170.9912 -65,38 -138.998,87.9981 -142.998,97.9981 -2,4 -8.004,7.0019 -14.004,7.0019 -5,0 -36.987,21.0069 -70.987,47.0069 -217.999,168.9996 -413.013,390.0053 -548.012,625.0049 -36,62.9998 -119.989,238.98837 -137.989,287.98827 -7,18.9999 -17.005,44.0049 -21.005,55.0048 -65,155.9997 -109.998,400.9956 -116.998,634.9951 -9,298.9995 20.003,494.00547 112.002,760.00493 54,155.99968 63.999,179.00706 112.998,272.0068 26,49 52.997,100.9864 60.997,115.9864 8,14.9998 17.005,29.0068 21.005,32.0068 3,3 20.995,30 38.995,60 87.999,143.9998 280.001,353.9953 446.001,484.9951 132.999,105.9998 243.995,174.9981 394.995,247.9981 337.999,161.9996 651.003,225.0009 1023.003,206.0009 165.999,-8 240.002,-18.9902 397.002,-54.9902 74.999,-18 182,-49.9982 225,-67.998 17,-7 57,-24.0059 90,-36.0059 153.999,-59.9998 348.003,-177.0051 513.002,-310.0049 429,-343.9992 722.003,-894.00108 768.003,-1439.99993 35,-425.9992 -50.009,-837.9959 -249.008,-1204.99517 -27,-48.9999 -52.001,-91.9951 -56.001,-94.9951 -4,-3 -16.994,-22.0119 -27.994,-42.0117 -49.999,-85.9998 -176.008,-240.9885 -283.007,-347.9883 -104,-104.9998 -294.999,-260.0098 -318.999,-260.0098 -5,0 -10.994,-3.998 -12.994,-7.998 -11,-26 -263.002,-155.9924 -412.001,-211.9922 -112,-42 -279.001,-90 -315,-90 h -21.006 v -752.0069 c 0,-413.999 3.998,-758.9962 7.998,-765.996 7,-10 287.01,-12.0088 1438.008,-9.0088 1398.997,3 1430.994,4.0088 1508.994,24.0088 132.999,33.9998 234.007,71 362.007,135 66.999,32.9998 129.995,66.0039 139.995,74.0039 10,8 50.007,36.9912 88.007,65.9912 103,75.9998 227.001,200.0051 311.001,310.0049 41,52.9998 73.99,99.0009 73.99,101.0009 0,3 15.003,30.0002 33.003,60 35,58 111.995,235.0022 139.995,322.002 67,208.9996 80.01,517.9955 31.01,754.9951 -48.999,242.9996 -139,416 -225,435 -16,4 -30.999,10.9961 -33.999,15.9961 -4,5 -35.004,9.0088 -70.004,9.0088 -110,0 -197.998,-54.0031 -251.998,-153.0029 -21.999,-39 -25.009,-205.9952 -5.009,-229.9952 7,-8 21.007,-41.0078 32.007,-73.0078 101.999,-310.9994 59.998,-633.9965 -116.001,-900.9961 -49,-73.9998 -176.995,-207.0031 -248.995,-258.0029 -69.999,-50 -192.002,-115.0049 -217.002,-115.0049 -9,0 -18.998,-3.9941 -22.998,-8.9941 -8,-13 -93.01,-37.0049 -200.009,-55.0049 -104,-18 -331.989,-20.9912 -437.989,-5.9912 -208.999,31 -514.012,98.9902 -582.011,129.9902 -11,5 -41.991,16.0088 -69.991,24.0088 -64,19 -221.009,73.9961 -260.009,90.9961 -16,8 -58.995,26.001 -94.995,41.001 -136,54.9998 -331,155.9943 -423.999,218.9941 -120,79.9998 -205.996,153.0031 -199.996,168.0029 2,7 36.993,26.9963 76.993,45.9961 39,19 95.995,49.0129 124.995,68.0127 29,18 55.008,32.9883 58.008,32.9883 10,0 182.993,118.9992 267.993,183.999 74,58 323.003,296.0069 378.003,362.0069 137.999,167.9996 299.997,415.0041 371.997,569.0039 92.999,199.99957 136.01,314.99057 185.009,504.99027 52,201.9996 72.003,345.0082 78.003,583.0078 3,118.9996964 10,217.0019 15,217.0019 4,0 7.998,5.001 7.998,11.001 0,6 68.989,112.9973 152.989,236.99706 85,124.99974 293.012,433.99757 462.011,686.99707 170,252.9994 345.997,515.001 390.997,581.001 99.999,148.9996 113.994,203 64.995,255 -31,32.9998 -75.992,40.9941 -320.992,53.9941 -275.999,16 -526.01,31.0108 -740.009,46.0108 -80,5 -256.996,15.9941 -394.995,23.9941 -137,8 -333.001,20.001 -435,26.001 l -184.996,11.001 -97.998,74.0039 c -144.999,109.9996 -386.014,247.9951 -529.013,304.9951 -28,11 -70.999,29.0049 -93.999,40.0049 -24,9.9998 -47.994,18.999 -53.994,18.999 -5,0 -17.994,3.9941 -27.994,8.9941 -23.999,13 -179.007,57.0059 -287.006,81.0059 -329,75.9998 -794.001,81.9892 -1110,13.9892 -110,-23.9998 -237.996,-54.999 -259.996,-63.999 -83.999,-33.9998 -125.011,-42.9922 -147.011,-31.9922 -24,12 -68.989,27.0002 -182.989,60 -205.999,61 -385,113.9914 -420,125.9912 -22,7 -67.004,21.0108 -100.004,31.0108 -33,9 -80,23.9961 -105,30.9961 -60,19 -352.001,105.999 -465,138.999 -88,27 -177.006,53.001 -385.005,116.001 -58,17 -133.995,39.9951 -169.995,49.9951 -38.5,11 -62.247,16.748 -81.622,17.373 z m 668.628,-798.3691 c 23,0 532.998,-171.0039 532.998,-179.0039 0,-4 -19.011,-22.001 -42.011,-41.001 -101,-83.9998 -252.997,-231.9914 -330.996,-320.9912 -43,-50.9998 -48.001,-48.0037 -71.001,45.9961 -7,33 -38.991,151.9945 -69.991,263.9941 -44,156.9998 -54,206.002 -45,217.002 6,8 18.001,14.0039 26.001,14.0039 z m 4503.868,-836.748 c 56.375,-0.75 148.629,-3.7579 297.128,-9.2579 156,-6 163.995,-6.9931 173.995,-27.9931 7,-18 5.005,-30.002 -8.995,-52.002 -25.999,-41.9999 -165,-235.9971 -180,-251.997 -7,-7 -13.007,-17.0059 -13.007,-21.0059 0,-4 -10.991,-21.002 -24.991,-37.002 -14,-15.9999 -35.01,-43.9961 -46.01,-60.9961 -27,-42.9999 -44.99,-42.0048 -58.99,4.9952 -7,19.9999 -43.002,100.0118 -82.002,177.0117 -74.999,149.9998 -78.006,156.9893 -122.006,223.9892 -18,28 -23.993,46.0098 -16.993,50.0098 5,3.5 25.496,4.9981 81.871,4.2481 z M 5921.0995,831.06879 c -61.625,3.25 -123.624,-0.49709 -174.624,-11.99707 -250,-53.99988 -454.995,-252.00245 -518.994,-502.00195 -30,-115.9998 -17.996,-314.0021036 25.004,-412.002004 28,-62.999796 54.988,-115.997996 66.988,-127.997996 6,-7 12.011,-16.9912 12.011,-20.9912 0,-12 108.997,-123.9991 150.997,-153.999 56.999,-41.9999 123.992,-75.004 211.992,-104.0039 150.999,-47.9999 352.003,-32.0028 498.003,41.997 221.999,110.9998 363.01,328.0064 376.01,576.0059 9,154.9997 -24.008,271.99441 -114.008,413.99413 -83,129.99974 -198.997,216.99621 -360.996,270.99609 -49.5,16.49998 -110.758,26.75002 -172.383,30 z M 4151.4805,483.44672 c -34.5,-0.625 -68.996,-6.37306 -109.996,-17.37304 -98.999,-24.99996 -183.998,-75.99721 -247.998,-146.99711 -48.999,-52.9999 -70.012,-86.005 -113.012,-175.0048 -4,-9 -11.999,-49.992304 -18.999,-91.992204 -38,-249.999496 117.008,-492.012896 358.007,-563.012696 77,-23 219.003,-21.997 292.002,3.0029 245,81.9998 387,318.0103 345,575.009796 -31,191.999604 -193.01,356.993234 -395.009,402.993134 -41,9.49998 -75.495,13.99902 -109.995,13.37402 z m 850.004,-3348.36912 c -206.999,0 -220.009,-0.9992 -230.009,-18.999 -6,-13 -9.991,-154.0006 -9.991,-390 v -371.001 h 244.996 244.995 v 383.9941 c 0,340.9994 -1.996,385 -15.996,390 -9,3 -113.995,6.0059 -233.995,6.0059 z"
       style="fill:#fca311" />
  </g>
</svg>
